,
.   http://www.scenetime.com/signup.php  ---&gt;  Hottest scene tracker on the net !!!
 
Scenetime lucky draw is started , join now and be the winner . offer is limited 

    Join Now   http://www.scenetime.com/signup.php

    seed back for speed


 



...................................NFO:.................................................Another Fine Release Brought to you from -
===================================================================================================
BBBBBBBBBBBBBBBBB   BBBBBBBBBBBBBBBBB                     RRRRRRRRRRRRRRRRR           GGGGGGGGGGGGG
B::::::::::::::::B  B::::::::::::::::B                    R::::::::::::::::R       GGG::::::::::::G
B::::::BBBBBB:::::B B::::::BBBBBB:::::B                   R::::::RRRRRR:::::R    GG:::::::::::::::G
BB:::::B     B:::::BBB:::::B     B:::::B                  RR:::::R     R:::::R  G:::::GGGGGGGG::::G
  B::::B     B:::::B  B::::B     B:::::Bnnnn  nnnnnnnn      R::::R     R:::::R G:::::G       GGGGGG
  B::::B     B:::::B  B::::B     B:::::Bn:::nn::::::::nn    R::::R     R:::::RG:::::G              
  B::::BBBBBB:::::B   B::::BBBBBB:::::B n::::::::::::::nn   R::::RRRRRR:::::R G:::::G              
  B:::::::::::::BB    B:::::::::::::BB  nn:::::::::::::::n  R:::::::::::::RR  G:::::G    GGGGGGGGGG
  B::::BBBBBB:::::B   B::::BBBBBB:::::B   n:::::nnnn:::::n  R::::RRRRRR:::::R G:::::G    G::::::::G
  B::::B     B:::::B  B::::B     B:::::B  n::::n    n::::n  R::::R     R:::::RG:::::G    GGGGG::::G
  B::::B     B:::::B  B::::B     B:::::B  n::::n    n::::n  R::::R     R:::::RG:::::G        G::::G
  B::::B     B:::::B  B::::B     B:::::B  n::::n    n::::n  R::::R     R:::::R G:::::G       G::::G
BB:::::BBBBBB::::::BBB:::::BBBBBB::::::B  n::::n    n::::nRR:::::R     R:::::R  G:::::GGGGGGGG::::G
B:::::::::::::::::B B:::::::::::::::::B   n::::n    n::::nR::::::R     R:::::R   GG:::::::::::::::G
B::::::::::::::::B  B::::::::::::::::B    n::::n    n::::nR::::::R     R:::::R     GGG::::::GGG:::G
BBBBBBBBBBBBBBBBB   BBBBBBBBBBBBBBBBB     nnnnnn    nnnnnnRRRRRRRR     RRRRRRR        GGGGGG   GGGG
===================================================================================================
                           Straw Dogs (2011) DVDRip XviD BBnRG
===================================================================================================

 ___     _                    ___       __    
| _ \___| |___ __ _ ___ ___  |_ _|_ _  / _|___
|   / -_) / -_) _` (_-&lt;/ -_)  | || ' \|  _/ _ \
|_|_\___|_\___\__,_/__/\___| |___|_||_|_| \___/
===================================================================================================
Complete name                    : Straw Dogs (2011) DVDRip XviD BBnRG.avi
Format                           : AVI
Format/Info                      : Audio Video Interleave
File size                        : 1.61 GiB
Duration                         : 1h 49mn
Overall bit rate                 : 2 098 Kbps

Video
ID                               : 0
Format                           : MPEG-4 Visual
Format profile                   : Advanced Simple@L5
Format settings, BVOP            : 2
Format settings, QPel            : No
Format settings, GMC             : No warppoints
Format settings, Matrix          : Default (H.263)
Codec ID                         : XVID
Codec ID/Hint                    : XviD
Duration                         : 1h 49mn
Bit rate                         : 1 705 Kbps
Width                            : 720 pixels
Height                           : 304 pixels
Display aspect ratio             : 2.35:1
Frame rate                       : 29.970 fps
Color space                      : YUV
Chroma subsampling               : 4:2:0
Bit depth                        : 8 bits
Scan type                        : Progressive
Compression mode                 : Lossy
Bits/(Pixel*Frame)               : 0.260
Stream size                      : 1.31 GiB (81%)
Writing library                  : XviD 1.2.1 (UTC 2008-12-04)

Audio
ID                               : 1
Format                           : AC-3
Format/Info                      : Audio Coding 3
Mode extension                   : CM (complete main)
Codec ID                         : 2000
Duration                         : 1h 49mn
Bit rate mode                    : Constant
Bit rate                         : 384 Kbps
Channel(s)                       : 6 channels
Channel positions                : Front: L C R, Side: L R, LFE
Sampling rate                    : 48.0 KHz
Bit depth                        : 16 bits
Compression mode                 : Lossy
Stream size                      : 301 MiB (18%)
Alignment                        : Aligned on interleaves
Interleave, duration             : 64 ms (1.92 video frames)
Interleave, preload duration     : 192 ms
Title                            : Straw Dogs (2011) DVDRip XviD BBnRG

 ___     _                    ___                 _      _   _          
| _ \___| |___ __ _ ___ ___  |   \ ___ ___ __ _ _(_)_ __| |_(_)___ _ _  
|   / -_) / -_) _` (_-&lt;/ -_) | |) / -_|_-&lt;/ _| '_| | '_ \  _| / _ \ ' \
|_|_\___|_\___\__,_/__/\___| |___/\___/__/\__|_| |_| .__/\__|_\___/_||_|
                                                   |_|                  
===================================================================================================
110 min  -  Thriller   -  4 November 2011 (UK) 

David and Amy Sumner (James Marsden and Kate Bosworth), a Hollywood screenwriter and his 
actress wife, return to her small hometown in the deep South to prepare the family home 
for sale after her father's death. Once there, tensions build in their marriage and old 
conflicts re-emerge with the locals, including Amy's ex-boyfriend Charlie (Alexander 
Skarsgard), leading to a violent confrontation.

IMDb Link:http://www.imdb.com/title/tt0999913/
  ___                     _  _     _          
 / __|_ _ ___ _  _ _ __  | \| |___| |_ ___ ___
| (_ | '_/ _ \ || | '_ \ | .` / _ \  _/ -_|_-&lt;
 \___|_| \___/\_,_| .__/ |_|\_\___/\__\___/__/
                  |_|                        
===================================================================================================
Encoder:   FridayToker 
Source(s): DTRG (thanks)   

Another fine release from BBnRG

We aim to bring the best 

  ___             _      
 / __|_ _ ___ ___| |_ ___
| (_ | '_/ -_) -_)  _|_ /
 \___|_| \___\___|\__/__|
===================================================================================================
NiCkkkDoN, Hive-CM8, DiVERSiTY, ViSiON, CrEwSaDe, INF1N1TY, 3LT0N, T0XiC, *THC*, TWiZTED, BBRG, 
BHRG, PECKO, CRYS, SC0RN, DEFACED, AMiABLE, KiNGDOM, aAF, MOUMENTUM, UnKnOwN, FreaK, FLAWL3SS, 
BDK, SMSB, ViP3R, EMBER, LKRG, LTRG, MXMG, Rx, MASSiVE, TaRiQ786, Jucified, RippeR, cOOkies, 
EXViD, TDP, VoMiT, PRESTiGE & to all other p2p groups out there....